<svg width="111" height="111" viewBox="0 0 111 111" fill="none" xmlns="http://www.w3.org/2000/svg">
<circle cx="55.5" cy="55.5" r="55.5" fill="#3D0103"/>
<path d="M19.5618 40L25.5188 25.418C25.5341 25.372 25.5801 25.349 25.6568 25.349C25.7488 25.349 25.8025 25.372 25.8178 25.418L31.8668 40H30.2568L25.0128 27.304L25.6568 26.522L20.1598 40H19.5618ZM18.3198 43.542C18.3198 42.8827 18.3045 42.346 18.2738 41.932C18.2585 41.5333 18.2278 41.2113 18.1818 40.966C18.1511 40.7207 18.1205 40.506 18.0898 40.322C18.0745 40.138 18.0668 39.9387 18.0668 39.724C18.0668 39.6013 18.0821 39.5323 18.1128 39.517C18.1435 39.4863 18.2125 39.471 18.3198 39.471H32.9018C33.0245 39.471 33.0935 39.4863 33.1088 39.517C33.1395 39.5323 33.1548 39.6013 33.1548 39.724C33.1548 39.908 33.1318 40.1303 33.0858 40.391C33.0551 40.6517 33.0245 41.0197 32.9938 41.495C32.9631 41.9857 32.9478 42.668 32.9478 43.542C32.9478 43.6033 32.9018 43.634 32.8098 43.634C32.7178 43.634 32.6718 43.6033 32.6718 43.542C32.6718 42.3153 32.3728 41.4183 31.7748 40.851C31.1921 40.2837 30.2185 40 28.8538 40H21.8158C21.2025 40 20.6505 40.1073 20.1598 40.322C19.6691 40.5367 19.2781 40.9047 18.9868 41.426C18.7108 41.9473 18.5728 42.6527 18.5728 43.542C18.5728 43.6033 18.5268 43.634 18.4348 43.634C18.3581 43.634 18.3198 43.6033 18.3198 43.542ZM40.9969 40.138C40.9356 40.1687 40.8742 40.184 40.8129 40.184C40.6136 40.184 40.4219 40.023 40.2379 39.701C40.0539 39.3637 39.9619 38.8807 39.9619 38.252V33.905C39.9619 32.9543 39.8239 32.2873 39.5479 31.904C39.2872 31.5207 38.9422 31.329 38.5129 31.329C38.1296 31.329 37.8152 31.4287 37.5699 31.628C37.3246 31.812 37.1406 32.0343 37.0179 32.295C36.9106 32.5557 36.8339 32.801 36.7879 33.031C36.7419 33.2457 36.6652 33.4603 36.5579 33.675C36.4506 33.8743 36.2359 33.974 35.9139 33.974C35.6532 33.974 35.4616 33.905 35.3389 33.767C35.2162 33.6137 35.1549 33.4527 35.1549 33.284C35.1549 32.9927 35.2929 32.709 35.5689 32.433C35.8602 32.157 36.2206 31.904 36.6499 31.674C37.0946 31.4287 37.5546 31.237 38.0299 31.099C38.5206 30.961 38.9576 30.892 39.3409 30.892C39.9696 30.892 40.4449 31.099 40.7669 31.513C41.0889 31.9117 41.2499 32.479 41.2499 33.215V37.516C41.2499 38.0527 41.3189 38.4437 41.4569 38.689C41.5949 38.9343 41.8172 39.057 42.1239 39.057C42.3999 39.057 42.7832 38.9573 43.2739 38.758C43.3506 38.7273 43.4042 38.758 43.4349 38.85C43.4656 38.9267 43.4426 38.9803 43.3659 39.011L40.9969 40.138ZM36.8569 40.161C36.2742 40.161 35.8296 40.0077 35.5229 39.701C35.2162 39.379 35.0629 39.0033 35.0629 38.574C35.0629 38.2673 35.1396 37.9913 35.2929 37.746C35.4616 37.4853 35.7222 37.2477 36.0749 37.033C36.4276 36.8183 36.8799 36.6113 37.4319 36.412L40.1919 35.377L40.2609 35.676L37.8229 36.619C37.5469 36.7263 37.3169 36.849 37.1329 36.987C36.9489 37.125 36.8109 37.2783 36.7189 37.447C36.6422 37.6157 36.6039 37.7997 36.6039 37.999C36.6039 38.3517 36.7189 38.6583 36.9489 38.919C37.1789 39.1797 37.4932 39.31 37.8919 39.31C38.0452 39.31 38.2062 39.287 38.3749 39.241C38.5436 39.195 38.7506 39.0953 38.9959 38.942L40.4449 38.068L40.4909 38.367L38.7889 39.471C38.4209 39.7163 38.0836 39.8927 37.7769 40C37.4856 40.1073 37.1789 40.161 36.8569 40.161ZM46.2166 35.791V35.331H52.4036V35.791H46.2166ZM45.6186 38.137V32.985C45.6186 32.3103 45.5266 31.881 45.3426 31.697C45.174 31.4977 44.783 31.398 44.1696 31.398C44.1236 31.398 44.1006 31.352 44.1006 31.26C44.1006 31.168 44.1236 31.122 44.1696 31.122C44.461 31.122 44.7906 31.1297 45.1586 31.145C45.5266 31.1603 45.9023 31.168 46.2856 31.168C46.6536 31.168 47.0216 31.1603 47.3896 31.145C47.7576 31.1297 48.0873 31.122 48.3786 31.122C48.4093 31.122 48.4246 31.168 48.4246 31.26C48.4246 31.352 48.4093 31.398 48.3786 31.398C47.7346 31.398 47.3283 31.5053 47.1596 31.72C46.991 31.9347 46.9066 32.3717 46.9066 33.031V38.137C46.9066 38.7963 46.991 39.2257 47.1596 39.425C47.3283 39.6243 47.7346 39.724 48.3786 39.724C48.4093 39.724 48.4246 39.77 48.4246 39.862C48.4246 39.954 48.4093 40 48.3786 40C48.072 40 47.7346 39.9923 47.3666 39.977C47.014 39.9617 46.6536 39.954 46.2856 39.954C45.9023 39.954 45.5266 39.9617 45.1586 39.977C44.7906 39.9923 44.4533 40 44.1466 40C44.1006 40 44.0776 39.954 44.0776 39.862C44.0776 39.77 44.1006 39.724 44.1466 39.724C44.7753 39.724 45.174 39.6243 45.3426 39.425C45.5266 39.2257 45.6186 38.7963 45.6186 38.137ZM51.8056 38.137V32.985C51.8056 32.3103 51.7136 31.881 51.5296 31.697C51.361 31.4977 50.97 31.398 50.3566 31.398C50.3106 31.398 50.2876 31.352 50.2876 31.26C50.2876 31.168 50.3106 31.122 50.3566 31.122C50.648 31.122 50.9776 31.1297 51.3456 31.145C51.7136 31.1603 52.0893 31.168 52.4726 31.168C52.8406 31.168 53.2086 31.1603 53.5766 31.145C53.9446 31.1297 54.2743 31.122 54.5656 31.122C54.5963 31.122 54.6116 31.168 54.6116 31.26C54.6116 31.352 54.5963 31.398 54.5656 31.398C53.9216 31.398 53.5153 31.5053 53.3466 31.72C53.178 31.9347 53.0936 32.3717 53.0936 33.031V38.137C53.0936 38.7963 53.178 39.2257 53.3466 39.425C53.5153 39.6243 53.9216 39.724 54.5656 39.724C54.5963 39.724 54.6116 39.77 54.6116 39.862C54.6116 39.954 54.5963 40 54.5656 40C54.259 40 53.9216 39.9923 53.5536 39.977C53.201 39.9617 52.8406 39.954 52.4726 39.954C52.0893 39.954 51.706 39.9617 51.3226 39.977C50.9546 39.9923 50.625 40 50.3336 40C50.2876 40 50.2646 39.954 50.2646 39.862C50.2646 39.77 50.2876 39.724 50.3336 39.724C50.9623 39.724 51.361 39.6243 51.5296 39.425C51.7136 39.2257 51.8056 38.7963 51.8056 38.137ZM57.57 40.23C57.5087 40.23 57.455 40.2147 57.409 40.184C57.363 40.1687 57.34 40.1457 57.34 40.115V32.985C57.34 32.3103 57.248 31.881 57.064 31.697C56.8954 31.4977 56.5044 31.398 55.891 31.398C55.8604 31.398 55.845 31.352 55.845 31.26C55.845 31.168 55.8604 31.122 55.891 31.122C56.1824 31.122 56.4967 31.1297 56.834 31.145C57.1714 31.1603 57.547 31.168 57.961 31.168C58.4057 31.168 58.8044 31.1603 59.157 31.145C59.5097 31.1297 59.824 31.122 60.1 31.122C60.146 31.122 60.169 31.168 60.169 31.26C60.169 31.352 60.146 31.398 60.1 31.398C59.4867 31.398 59.088 31.4977 58.904 31.697C58.72 31.881 58.628 32.3103 58.628 32.985V38.781L58.145 38.942L64.562 30.961C64.6234 30.915 64.677 30.892 64.723 30.892C64.8764 30.892 64.953 30.9303 64.953 31.007V38.137C64.953 38.7963 65.0374 39.2257 65.206 39.425C65.39 39.6243 65.7887 39.724 66.402 39.724C66.4327 39.724 66.448 39.77 66.448 39.862C66.448 39.954 66.4327 40 66.402 40C66.1107 40 65.7887 39.9923 65.436 39.977C65.0834 39.9617 64.7154 39.954 64.332 39.954C63.9334 39.954 63.5424 39.9617 63.159 39.977C62.791 39.9923 62.469 40 62.193 40C62.147 40 62.124 39.954 62.124 39.862C62.124 39.77 62.147 39.724 62.193 39.724C62.8064 39.724 63.205 39.6243 63.389 39.425C63.573 39.2257 63.665 38.7963 63.665 38.137V32.318L64.171 32.157L57.731 40.161C57.7157 40.1763 57.6927 40.1917 57.662 40.207C57.6467 40.2223 57.616 40.23 57.57 40.23ZM69.3171 40.23C69.2558 40.23 69.2021 40.2147 69.1561 40.184C69.1101 40.1687 69.0871 40.1457 69.0871 40.115V32.985C69.0871 32.3103 68.9951 31.881 68.8111 31.697C68.6424 31.4977 68.2514 31.398 67.6381 31.398C67.6074 31.398 67.5921 31.352 67.5921 31.26C67.5921 31.168 67.6074 31.122 67.6381 31.122C67.9294 31.122 68.2438 31.1297 68.5811 31.145C68.9184 31.1603 69.2941 31.168 69.7081 31.168C70.1528 31.168 70.5514 31.1603 70.9041 31.145C71.2568 31.1297 71.5711 31.122 71.8471 31.122C71.8931 31.122 71.9161 31.168 71.9161 31.26C71.9161 31.352 71.8931 31.398 71.8471 31.398C71.2338 31.398 70.8351 31.4977 70.6511 31.697C70.4671 31.881 70.3751 32.3103 70.3751 32.985V38.781L69.8921 38.942L76.3091 30.961C76.3704 30.915 76.4241 30.892 76.4701 30.892C76.6234 30.892 76.7001 30.9303 76.7001 31.007V38.137C76.7001 38.7963 76.7844 39.2257 76.9531 39.425C77.1371 39.6243 77.5358 39.724 78.1491 39.724C78.1798 39.724 78.1951 39.77 78.1951 39.862C78.1951 39.954 78.1798 40 78.1491 40C77.8578 40 77.5358 39.9923 77.1831 39.977C76.8304 39.9617 76.4624 39.954 76.0791 39.954C75.6804 39.954 75.2894 39.9617 74.9061 39.977C74.5381 39.9923 74.2161 40 73.9401 40C73.8941 40 73.8711 39.954 73.8711 39.862C73.8711 39.77 73.8941 39.724 73.9401 39.724C74.5534 39.724 74.9521 39.6243 75.1361 39.425C75.3201 39.2257 75.4121 38.7963 75.4121 38.137V32.318L75.9181 32.157L69.4781 40.161C69.4628 40.1763 69.4398 40.1917 69.4091 40.207C69.3938 40.2223 69.3631 40.23 69.3171 40.23ZM78.8332 40C78.7718 40 78.7412 39.954 78.7412 39.862C78.7412 39.77 78.7718 39.724 78.8332 39.724C79.0018 39.724 79.1782 39.655 79.3622 39.517C79.5462 39.3637 79.7608 39.0877 80.0062 38.689C80.2515 38.2903 80.5428 37.7153 80.8802 36.964L83.5252 30.777C83.5558 30.7157 83.6018 30.685 83.6632 30.685C83.7398 30.685 83.7858 30.7157 83.8012 30.777L86.6532 36.849C87.0365 37.6463 87.3432 38.252 87.5732 38.666C87.8032 39.08 88.0255 39.3637 88.2402 39.517C88.4548 39.655 88.7308 39.724 89.0682 39.724C89.1448 39.724 89.1832 39.77 89.1832 39.862C89.1832 39.954 89.1448 40 89.0682 40C88.7155 40 88.3475 39.9847 87.9642 39.954C87.5962 39.9233 87.2358 39.908 86.8832 39.908C86.5918 39.908 86.2775 39.9233 85.9402 39.954C85.6028 39.9847 85.2962 40 85.0202 40C84.9588 40 84.9282 39.954 84.9282 39.862C84.9282 39.77 84.9588 39.724 85.0202 39.724C85.4188 39.724 85.6948 39.5937 85.8482 39.333C86.0168 39.0723 85.9555 38.6507 85.6642 38.068L83.1112 32.617L83.6402 31.904L81.4092 37.171C81.1178 37.861 80.9722 38.39 80.9722 38.758C80.9875 39.126 81.1025 39.379 81.3172 39.517C81.5318 39.655 81.7848 39.724 82.0762 39.724C82.1528 39.724 82.1912 39.77 82.1912 39.862C82.1912 39.954 82.1528 40 82.0762 40C81.8002 40 81.5548 39.9847 81.3402 39.954C81.1408 39.9233 80.8572 39.908 80.4892 39.908C80.2132 39.908 79.9908 39.9157 79.8222 39.931C79.6688 39.9463 79.5232 39.9617 79.3852 39.977C79.2472 39.9923 79.0632 40 78.8332 40ZM49.7312 62.23C49.6698 62.23 49.6162 62.2147 49.5702 62.184C49.5242 62.1687 49.5012 62.1457 49.5012 62.115V54.985C49.5012 54.3103 49.4092 53.881 49.2252 53.697C49.0565 53.4977 48.6655 53.398 48.0522 53.398C48.0215 53.398 48.0062 53.352 48.0062 53.26C48.0062 53.168 48.0215 53.122 48.0522 53.122C48.3435 53.122 48.6578 53.1297 48.9952 53.145C49.3325 53.1603 49.7082 53.168 50.1222 53.168C50.5668 53.168 50.9655 53.1603 51.3182 53.145C51.6708 53.1297 51.9852 53.122 52.2612 53.122C52.3072 53.122 52.3302 53.168 52.3302 53.26C52.3302 53.352 52.3072 53.398 52.2612 53.398C51.6478 53.398 51.2492 53.4977 51.0652 53.697C50.8812 53.881 50.7892 54.3103 50.7892 54.985V60.781L50.3062 60.942L56.7232 52.961C56.7845 52.915 56.8382 52.892 56.8842 52.892C57.0375 52.892 57.1142 52.9303 57.1142 53.007V60.137C57.1142 60.7963 57.1985 61.2257 57.3672 61.425C57.5512 61.6243 57.9498 61.724 58.5632 61.724C58.5938 61.724 58.6092 61.77 58.6092 61.862C58.6092 61.954 58.5938 62 58.5632 62C58.2718 62 57.9498 61.9923 57.5972 61.977C57.2445 61.9617 56.8765 61.954 56.4932 61.954C56.0945 61.954 55.7035 61.9617 55.3202 61.977C54.9522 61.9923 54.6302 62 54.3542 62C54.3082 62 54.2852 61.954 54.2852 61.862C54.2852 61.77 54.3082 61.724 54.3542 61.724C54.9675 61.724 55.3662 61.6243 55.5502 61.425C55.7342 61.2257 55.8262 60.7963 55.8262 60.137V54.318L56.3322 54.157L49.8922 62.161C49.8768 62.1763 49.8538 62.1917 49.8232 62.207C49.8078 62.2223 49.7772 62.23 49.7312 62.23ZM25.3341 77.134L25.5871 76.881C26.4917 76.881 27.2814 77.0497 27.9561 77.387C28.6461 77.7243 29.1751 78.1843 29.5431 78.767C29.9264 79.3497 30.1181 80.0167 30.1181 80.768C30.1181 81.5807 29.9187 82.3167 29.5201 82.976C29.1214 83.6353 28.5694 84.1567 27.8641 84.54C27.1741 84.908 26.3997 85.092 25.5411 85.092C25.0504 85.092 24.4907 85.069 23.8621 85.023C23.2487 84.977 22.6814 84.954 22.1601 84.954C21.6541 84.954 21.1634 84.9617 20.6881 84.977C20.2281 84.9923 19.8064 85 19.4231 85C19.3924 85 19.3771 84.954 19.3771 84.862C19.3771 84.77 19.3924 84.724 19.4231 84.724C19.9751 84.724 20.3967 84.6857 20.6881 84.609C20.9794 84.5323 21.1787 84.379 21.2861 84.149C21.3934 83.919 21.4471 83.5817 21.4471 83.137V72.488C21.4471 72.0433 21.3934 71.7137 21.2861 71.499C21.1941 71.269 21.0024 71.1157 20.7111 71.039C20.4351 70.947 20.0211 70.901 19.4691 70.901C19.4231 70.901 19.4001 70.855 19.4001 70.763C19.4001 70.671 19.4231 70.625 19.4691 70.625C19.8371 70.625 20.2511 70.6403 20.7111 70.671C21.1711 70.6863 21.6541 70.694 22.1601 70.694C22.5587 70.694 23.0187 70.671 23.5401 70.625C24.0614 70.579 24.5061 70.556 24.8741 70.556C25.7787 70.556 26.5147 70.694 27.0821 70.97C27.6494 71.2307 28.0634 71.591 28.3241 72.051C28.6001 72.511 28.7381 73.0247 28.7381 73.592C28.7381 74.466 28.4161 75.2097 27.7721 75.823C27.1434 76.4363 26.3307 76.8733 25.3341 77.134ZM24.3681 70.901C24.0154 70.901 23.7317 70.9317 23.5171 70.993C23.3024 71.0543 23.1491 71.2 23.0571 71.43C22.9651 71.6447 22.9191 72.0127 22.9191 72.534V77.042L22.1831 76.858C22.6737 76.8887 23.0801 76.9117 23.4021 76.927C23.7241 76.927 23.9081 76.927 23.9541 76.927C25.1347 76.927 25.9781 76.628 26.4841 76.03C26.9901 75.4167 27.2431 74.6653 27.2431 73.776C27.2431 73.2393 27.1434 72.7563 26.9441 72.327C26.7601 71.8823 26.4611 71.5373 26.0471 71.292C25.6331 71.0313 25.0734 70.901 24.3681 70.901ZM25.1961 84.678C26.3461 84.678 27.1817 84.3867 27.7031 83.804C28.2397 83.206 28.5081 82.3857 28.5081 81.343C28.5081 80.193 28.1707 79.25 27.4961 78.514C26.8214 77.778 25.8784 77.41 24.6671 77.41C24.2837 77.3947 23.8851 77.3947 23.4711 77.41C23.0724 77.4253 22.6661 77.4637 22.2521 77.525L22.9191 77.272V83.137C22.9191 83.505 22.9727 83.804 23.0801 84.034C23.1874 84.264 23.4021 84.4327 23.7241 84.54C24.0614 84.632 24.5521 84.678 25.1961 84.678ZM38.4813 85.138C38.4199 85.1687 38.3586 85.184 38.2973 85.184C38.0979 85.184 37.9063 85.023 37.7223 84.701C37.5383 84.3637 37.4463 83.8807 37.4463 83.252V78.905C37.4463 77.9543 37.3083 77.2873 37.0323 76.904C36.7716 76.5207 36.4266 76.329 35.9973 76.329C35.6139 76.329 35.2996 76.4287 35.0543 76.628C34.8089 76.812 34.6249 77.0343 34.5023 77.295C34.3949 77.5557 34.3183 77.801 34.2723 78.031C34.2263 78.2457 34.1496 78.4603 34.0423 78.675C33.9349 78.8743 33.7203 78.974 33.3983 78.974C33.1376 78.974 32.9459 78.905 32.8233 78.767C32.7006 78.6137 32.6393 78.4527 32.6393 78.284C32.6393 77.9927 32.7773 77.709 33.0533 77.433C33.3446 77.157 33.7049 76.904 34.1343 76.674C34.5789 76.4287 35.0389 76.237 35.5143 76.099C36.0049 75.961 36.4419 75.892 36.8253 75.892C37.4539 75.892 37.9293 76.099 38.2513 76.513C38.5733 76.9117 38.7343 77.479 38.7343 78.215V82.516C38.7343 83.0527 38.8033 83.4437 38.9413 83.689C39.0793 83.9343 39.3016 84.057 39.6083 84.057C39.8843 84.057 40.2676 83.9573 40.7583 83.758C40.8349 83.7273 40.8886 83.758 40.9193 83.85C40.9499 83.9267 40.9269 83.9803 40.8503 84.011L38.4813 85.138ZM34.3413 85.161C33.7586 85.161 33.3139 85.0077 33.0073 84.701C32.7006 84.379 32.5473 84.0033 32.5473 83.574C32.5473 83.2673 32.6239 82.9913 32.7773 82.746C32.9459 82.4853 33.2066 82.2477 33.5593 82.033C33.9119 81.8183 34.3643 81.6113 34.9163 81.412L37.6763 80.377L37.7453 80.676L35.3073 81.619C35.0313 81.7263 34.8013 81.849 34.6173 81.987C34.4333 82.125 34.2953 82.2783 34.2033 82.447C34.1266 82.6157 34.0883 82.7997 34.0883 82.999C34.0883 83.3517 34.2033 83.6583 34.4333 83.919C34.6633 84.1797 34.9776 84.31 35.3763 84.31C35.5296 84.31 35.6906 84.287 35.8593 84.241C36.0279 84.195 36.2349 84.0953 36.4803 83.942L37.9293 83.068L37.9753 83.367L36.2733 84.471C35.9053 84.7163 35.5679 84.8927 35.2613 85C34.9699 85.1073 34.6633 85.161 34.3413 85.161ZM41.2336 85C41.1722 85 41.1416 84.954 41.1416 84.862C41.1416 84.77 41.1722 84.724 41.2336 84.724C41.4022 84.724 41.5786 84.655 41.7626 84.517C41.9466 84.3637 42.1612 84.0877 42.4066 83.689C42.6519 83.2903 42.9432 82.7153 43.2806 81.964L45.9256 75.777C45.9562 75.7157 46.0022 75.685 46.0636 75.685C46.1402 75.685 46.1862 75.7157 46.2016 75.777L49.0536 81.849C49.4369 82.6463 49.7436 83.252 49.9736 83.666C50.2036 84.08 50.4259 84.3637 50.6406 84.517C50.8552 84.655 51.1312 84.724 51.4686 84.724C51.5452 84.724 51.5836 84.77 51.5836 84.862C51.5836 84.954 51.5452 85 51.4686 85C51.1159 85 50.7479 84.9847 50.3646 84.954C49.9966 84.9233 49.6362 84.908 49.2836 84.908C48.9922 84.908 48.6779 84.9233 48.3406 84.954C48.0032 84.9847 47.6966 85 47.4206 85C47.3592 85 47.3286 84.954 47.3286 84.862C47.3286 84.77 47.3592 84.724 47.4206 84.724C47.8192 84.724 48.0952 84.5937 48.2486 84.333C48.4172 84.0723 48.3559 83.6507 48.0646 83.068L45.5116 77.617L46.0406 76.904L43.8096 82.171C43.5182 82.861 43.3726 83.39 43.3726 83.758C43.3879 84.126 43.5029 84.379 43.7176 84.517C43.9322 84.655 44.1852 84.724 44.4766 84.724C44.5532 84.724 44.5916 84.77 44.5916 84.862C44.5916 84.954 44.5532 85 44.4766 85C44.2006 85 43.9552 84.9847 43.7406 84.954C43.5412 84.9233 43.2576 84.908 42.8896 84.908C42.6136 84.908 42.3912 84.9157 42.2226 84.931C42.0692 84.9463 41.9236 84.9617 41.7856 84.977C41.6476 84.9923 41.4636 85 41.2336 85ZM56.1742 85.276C55.2542 85.276 54.4799 85.069 53.8512 84.655C53.2225 84.2257 52.7472 83.6737 52.4252 82.999C52.1185 82.3243 51.9652 81.6113 51.9652 80.86C51.9652 79.9247 52.1799 79.089 52.6092 78.353C53.0385 77.6017 53.6212 77.0113 54.3572 76.582C55.1085 76.1373 55.9289 75.915 56.8182 75.915C57.6922 75.915 58.3515 76.145 58.7962 76.605C59.2562 77.065 59.4862 77.709 59.4862 78.537C59.4862 78.7363 59.4632 78.8897 59.4172 78.997C59.3865 79.089 59.3175 79.135 59.2102 79.135H57.9222C57.9835 78.1997 57.8455 77.5097 57.5082 77.065C57.1709 76.605 56.6879 76.375 56.0592 76.375C55.2465 76.375 54.6102 76.697 54.1502 77.341C53.7055 77.985 53.4832 78.8667 53.4832 79.986C53.4832 80.86 53.6212 81.6343 53.8972 82.309C54.1732 82.9837 54.5795 83.5127 55.1162 83.896C55.6529 84.2793 56.3045 84.471 57.0712 84.471C57.5925 84.471 58.0219 84.3943 58.3592 84.241C58.6965 84.0877 59.0339 83.9113 59.3712 83.712C59.4019 83.6813 59.4402 83.7043 59.4862 83.781C59.5475 83.8423 59.5629 83.896 59.5322 83.942C58.9955 84.4173 58.4435 84.7623 57.8762 84.977C57.3242 85.1763 56.7569 85.276 56.1742 85.276ZM53.0692 79.158L53.0462 78.859L58.2672 78.767V79.135L53.0692 79.158ZM60.9169 91.325C60.8709 91.325 60.8479 91.279 60.8479 91.187C60.8479 91.095 60.8709 91.049 60.9169 91.049C61.6222 91.049 62.0745 90.9493 62.2739 90.75C62.4885 90.5507 62.5959 90.1213 62.5959 89.462V77.985C62.5959 77.341 62.4655 76.9193 62.2049 76.72C61.9442 76.5053 61.4305 76.398 60.6639 76.398C60.6179 76.398 60.5949 76.352 60.5949 76.26C60.5949 76.168 60.6179 76.122 60.6639 76.122C61.0472 76.122 61.4075 76.122 61.7449 76.122C62.0975 76.122 62.4119 76.122 62.6879 76.122C62.9792 76.122 63.2322 76.122 63.4469 76.122C63.6155 76.122 63.7305 76.1603 63.7919 76.237C63.8532 76.3137 63.8839 76.4747 63.8839 76.72V89.462C63.8839 89.8913 63.9375 90.221 64.0449 90.451C64.1675 90.681 64.3899 90.8343 64.7119 90.911C65.0492 91.003 65.5399 91.049 66.1839 91.049C66.2299 91.049 66.2529 91.095 66.2529 91.187C66.2529 91.279 66.2299 91.325 66.1839 91.325C65.7699 91.325 65.3099 91.3173 64.8039 91.302C64.3132 91.2867 63.7919 91.279 63.2399 91.279C62.8105 91.279 62.3889 91.2867 61.9749 91.302C61.5762 91.3173 61.2235 91.325 60.9169 91.325ZM66.3219 85.299C65.7239 85.299 65.2025 85.23 64.7579 85.092C64.3132 84.954 63.8225 84.6933 63.2859 84.31L63.6309 83.045C64.0295 83.551 64.4819 83.9727 64.9879 84.31C65.5092 84.6473 66.1839 84.816 67.0119 84.816C67.8092 84.816 68.4762 84.4633 69.0129 83.758C69.5495 83.0527 69.8179 82.056 69.8179 80.768C69.8179 79.434 69.5189 78.422 68.9209 77.732C68.3229 77.042 67.6099 76.697 66.7819 76.697C66.0919 76.697 65.4939 76.8887 64.9879 77.272C64.4819 77.64 63.9912 78.0847 63.5159 78.606L63.3089 78.422C64.0909 77.5173 64.8345 76.858 65.5399 76.444C66.2605 76.03 66.9965 75.823 67.7479 75.823C68.3765 75.823 68.9515 75.9917 69.4729 76.329C70.0095 76.651 70.4389 77.1263 70.7609 77.755C71.0982 78.3837 71.2669 79.1503 71.2669 80.055C71.2669 80.9903 71.1059 81.7877 70.7839 82.447C70.4619 83.1063 70.0479 83.6507 69.5419 84.08C69.0359 84.494 68.4992 84.8007 67.9319 85C67.3645 85.1993 66.8279 85.299 66.3219 85.299ZM74.4382 85.23C74.3769 85.23 74.3232 85.2147 74.2772 85.184C74.2312 85.1687 74.2082 85.1457 74.2082 85.115V77.985C74.2082 77.3103 74.1162 76.881 73.9322 76.697C73.7635 76.4977 73.3725 76.398 72.7592 76.398C72.7285 76.398 72.7132 76.352 72.7132 76.26C72.7132 76.168 72.7285 76.122 72.7592 76.122C73.0505 76.122 73.3649 76.1297 73.7022 76.145C74.0395 76.1603 74.4152 76.168 74.8292 76.168C75.2739 76.168 75.6725 76.1603 76.0252 76.145C76.3779 76.1297 76.6922 76.122 76.9682 76.122C77.0142 76.122 77.0372 76.168 77.0372 76.26C77.0372 76.352 77.0142 76.398 76.9682 76.398C76.3549 76.398 75.9562 76.4977 75.7722 76.697C75.5882 76.881 75.4962 77.3103 75.4962 77.985V83.781L75.0132 83.942L81.4302 75.961C81.4915 75.915 81.5452 75.892 81.5912 75.892C81.7445 75.892 81.8212 75.9303 81.8212 76.007V83.137C81.8212 83.7963 81.9055 84.2257 82.0742 84.425C82.2582 84.6243 82.6569 84.724 83.2702 84.724C83.3009 84.724 83.3162 84.77 83.3162 84.862C83.3162 84.954 83.3009 85 83.2702 85C82.9789 85 82.6569 84.9923 82.3042 84.977C81.9515 84.9617 81.5835 84.954 81.2002 84.954C80.8015 84.954 80.4105 84.9617 80.0272 84.977C79.6592 84.9923 79.3372 85 79.0612 85C79.0152 85 78.9922 84.954 78.9922 84.862C78.9922 84.77 79.0152 84.724 79.0612 84.724C79.6745 84.724 80.0732 84.6243 80.2572 84.425C80.4412 84.2257 80.5332 83.7963 80.5332 83.137V77.318L81.0392 77.157L74.5992 85.161C74.5839 85.1763 74.5609 85.1917 74.5302 85.207C74.5149 85.2223 74.4842 85.23 74.4382 85.23ZM92.8323 84.724C92.8629 84.724 92.8783 84.77 92.8783 84.862C92.8783 84.954 92.8629 85 92.8323 85C92.5716 85 92.2649 84.9923 91.9123 84.977C91.5749 84.9617 91.2146 84.954 90.8313 84.954C90.4173 84.954 90.0339 84.9617 89.6813 84.977C89.3439 84.9923 89.0219 85 88.7153 85C88.6846 85 88.6693 84.954 88.6693 84.862C88.6693 84.77 88.6846 84.724 88.7153 84.724C89.3286 84.724 89.7119 84.6243 89.8653 84.425C90.0339 84.2257 90.1183 83.7963 90.1183 83.137V80.837L90.4863 80.883C90.0569 80.883 89.6583 80.9367 89.2903 81.044C88.9376 81.1513 88.5926 81.366 88.2553 81.688C87.9333 82.01 87.5883 82.493 87.2203 83.137C86.9596 83.6277 86.7526 84.011 86.5993 84.287C86.4459 84.5477 86.3156 84.7317 86.2083 84.839C86.1163 84.9463 86.0089 85 85.8863 85H83.8853C83.8546 85 83.8393 84.954 83.8393 84.862C83.8393 84.77 83.8546 84.724 83.8853 84.724C84.2839 84.724 84.6136 84.6167 84.8743 84.402C85.1349 84.172 85.3419 83.9113 85.4953 83.62C85.6639 83.3287 85.8096 83.0757 85.9323 82.861C86.3156 82.217 86.7833 81.7263 87.3353 81.389C87.8873 81.0363 88.4853 80.86 89.1293 80.86L89.2903 80.929C87.9409 80.929 87.0056 80.7143 86.4843 80.285C85.9783 79.8403 85.7253 79.273 85.7253 78.583C85.7253 78.0617 85.8479 77.6093 86.0933 77.226C86.3386 76.8427 86.6836 76.5513 87.1283 76.352C87.5883 76.1527 88.1019 76.053 88.6693 76.053C88.9913 76.053 89.3516 76.076 89.7503 76.122C90.1489 76.1527 90.5093 76.168 90.8313 76.168C91.2146 76.168 91.5673 76.1603 91.8893 76.145C92.2266 76.1297 92.5333 76.122 92.8093 76.122C92.8399 76.122 92.8553 76.168 92.8553 76.26C92.8553 76.352 92.8399 76.398 92.8093 76.398C92.2419 76.398 91.8663 76.4977 91.6823 76.697C91.4983 76.881 91.4063 77.3103 91.4063 77.985V83.137C91.4063 83.7963 91.4983 84.2257 91.6823 84.425C91.8816 84.6243 92.2649 84.724 92.8323 84.724ZM87.1053 78.1C87.1053 78.79 87.2816 79.3803 87.6343 79.871C87.9869 80.3617 88.5159 80.607 89.2213 80.607C89.4359 80.607 89.6736 80.5993 89.9343 80.584C90.1949 80.5533 90.4019 80.5227 90.5553 80.492L90.1183 80.676V78.031C90.1183 77.3717 90.0339 76.927 89.8653 76.697C89.6966 76.4517 89.3516 76.329 88.8303 76.329C88.2936 76.329 87.8719 76.4593 87.5653 76.72C87.2586 76.9653 87.1053 77.4253 87.1053 78.1Z" fill="#FCFCFC"/>
</svg>
